<svg version="1.2" xmlns="http://www.w3.org/2000/svg" viewBox="0 0 1065 120" width="1065" height="120">
	<title>ahmed-logo-svg</title>
	<style>
		.s0 { fill: #2f855a } 
		.s1 { fill: #000000 } 
	</style>
	<g id="Layer">
		<path id="ahmedmarzouk" class="s0" aria-label="ahmedmarzouk"  d="m42.2 37q15.4 0 23.6 6.7 8.2 6.7 8.2 20.4v50.9h-14.5l-4.1-10.4h-0.5q-3.3 4.1-6.7 6.7-3.4 2.6-7.9 3.8-4.4 1.3-10.8 1.3-6.7 0-12.1-2.6-5.4-2.6-8.4-8-3.1-5.4-3.1-13.6 0-12.2 8.5-17.9 8.6-5.9 25.7-6.5l13.2-0.4v-3.3q0-6-3.1-8.8-3.2-2.8-8.8-2.8-5.5 0-10.8 1.5-5.4 1.6-10.7 4l-6.9-14.1q6.1-3.2 13.6-5.1 7.6-1.8 15.6-1.8zm11.1 48.9v-6.3l-8 0.3q-10.2 0.2-14.1 3.6-3.9 3.3-3.9 8.8 0 4.8 2.8 6.8 2.8 2 7.3 2 6.7 0 11.3-3.9 4.6-4 4.6-11.3zm42.2-77.3h20.8v21.7q0 5.7-0.4 10.8-0.3 5.1-0.5 7.2h1.1q2.4-3.9 5.8-6.4 3.4-2.4 7.5-3.6 4.1-1.2 8.8-1.2 8.3 0 14.5 3 6.1 2.8 9.5 9.1 3.4 6.1 3.4 16v49.8h-20.8v-44.6q0-8.2-3-12.4-3-4.2-9.3-4.2-6.3 0-9.9 3-3.6 2.8-5.1 8.5-1.6 5.6-1.6 13.7v36h-20.8zm181.8 28.5q13 0 19.6 6.7 6.7 6.6 6.7 21.3v49.9h-20.9v-44.7q0-8.2-2.8-12.3-2.8-4.2-8.7-4.2-8.3 0-11.8 5.9-3.5 5.9-3.5 16.9v38.4h-20.8v-44.7q0-5.4-1.2-9.1-1.3-3.7-3.8-5.6-2.5-1.8-6.5-1.8-5.8 0-9.2 2.9-3.2 2.9-4.7 8.6-1.3 5.6-1.3 13.7v36h-20.9v-76.5h15.9l2.8 9.8h1.2q2.3-3.9 5.8-6.4 3.6-2.5 7.8-3.6 4.2-1.2 8.6-1.2 8.4 0 14.2 2.7 5.9 2.8 9.1 8.5h1.8q3.4-5.9 9.6-8.5 6.3-2.7 13-2.7zm79.2 0q10.6 0 18.2 4.1 7.7 4 11.9 11.8 4.1 7.7 4.1 18.8v10.1h-49.2q0.3 8.9 5.2 13.9 5 5 13.8 5 7.3 0 13.4-1.5 6.1-1.5 12.5-4.5v16.1q-5.6 2.8-11.9 4.1-6.1 1.3-14.9 1.3-11.5 0-20.4-4.2-8.8-4.2-13.9-12.9-5-8.7-5-21.9 0-13.4 4.5-22.3 4.6-8.9 12.8-13.4 8.1-4.5 18.9-4.5zm0.1 14.8q-6.1 0-10.1 3.9-4 3.9-4.6 12.3h29.3q-0.1-4.7-1.7-8.3-1.6-3.6-4.8-5.7-3.1-2.2-8.1-2.2zm75.3 64.4q-12.8 0-20.9-9.9-8-10.1-8-29.5 0-19.6 8.2-29.7 8.1-10.1 21.2-10.1 5.5 0 9.7 1.5 4.1 1.5 7.2 4 3 2.6 5.2 5.7h0.6q-0.4-2.2-1-6.4-0.5-4.3-0.5-8.8v-24.5h20.9v106.4h-16l-4-9.9h-0.9q-2 3.1-5 5.7-3 2.5-7.1 4-4.1 1.5-9.6 1.5zm7.3-16.6q8.6 0 12-5 3.6-5.2 3.8-15.4v-2.3q0-11.1-3.4-17-3.4-5.9-12.7-5.9-6.9 0-10.8 5.9-3.9 6-3.9 17.2 0 11.2 3.9 16.8 3.9 5.7 11.1 5.7z"/>
		<path id="ahmedmarzouk" class="s1" aria-label="ahmedmarzouk"  d="m578.7 38.7q12.3 0 18.6 6.5 6.3 6.4 6.3 20.7v49.1h-11.2v-48.5q0-9.1-4-13.6-3.9-4.6-11.6-4.6-10.9 0-15.8 6.3-4.9 6.3-4.9 18.5v41.9h-11.3v-48.5q0-6.1-1.8-10.2-1.7-4-5.1-6-3.5-2-8.7-2-7.5 0-12 3.1-4.5 3-6.6 9.1-1.9 6-1.9 14.9v39.6h-11.4v-74.9h9.2l1.7 10.6h0.6q2.3-3.9 5.7-6.6 3.4-2.7 7.6-4 4.3-1.4 9.1-1.4 8.5 0 14.2 3.2 5.8 3.2 8.4 9.7h0.7q3.7-6.5 10.1-9.7 6.4-3.2 14.1-3.2zm76.3 0.1q13.3 0 19.8 6.1 6.5 6 6.5 19.2v50.9h-8.2l-2.2-11.1h-0.6q-3.1 4.1-6.5 6.9-3.4 2.8-8 4.2-4.4 1.4-10.9 1.4-6.8 0-12.2-2.4-5.2-2.4-8.3-7.3-3-4.8-3-12.3 0-11.2 8.9-17.2 8.9-6 27-6.6l13-0.5v-4.6q0-9.7-4.2-13.6-4.2-3.9-11.8-3.9-5.8 0-11.2 1.7-5.3 1.7-10.1 4.1l-3.5-8.7q5.1-2.6 11.6-4.4 6.6-1.9 13.9-1.9zm15.1 46.2v-6.9l-11.4 0.5q-14 0.5-19.7 4.5-5.8 4.1-5.8 11.5 0 6.4 3.9 9.5 3.9 3 10.3 3 10 0 16.4-5.5 6.3-5.5 6.3-16.6zm68.7-46.3q2.2 0 4.7 0.3 2.4 0.2 4.4 0.6l-1.5 10.5q-1.8-0.5-4.1-0.7-2.2-0.3-4.2-0.3-4.5 0-8.6 1.8-3.9 1.8-6.9 5.2-3 3.4-4.8 8.2-1.7 4.7-1.7 10.5v40.2h-11.4v-74.9h9.5l1.2 13.8h0.5q2.3-4.2 5.6-7.6 3.2-3.5 7.6-5.5 4.3-2.1 9.7-2.1zm71.3 67.5v8.8h-54.7v-7.5l41.1-58.5h-38.5v-8.9h51.2v8.4l-40.6 57.7zm82.1-28.8q0 9.2-2.4 16.5-2.4 7.2-6.9 12.2-4.5 5-10.9 7.7-6.4 2.6-14.4 2.6-7.5 0-13.8-2.6-6.3-2.7-10.8-7.7-4.5-5-7.1-12.2-2.4-7.3-2.4-16.5 0-12.3 4.1-20.9 4.2-8.7 11.9-13.2 7.8-4.6 18.6-4.6 10.2 0 17.9 4.6 7.7 4.6 11.9 13.3 4.3 8.6 4.3 20.8zm-57 0q0 9 2.4 15.7 2.4 6.6 7.4 10.2 5 3.6 12.8 3.6 7.8 0 12.8-3.6 5.1-3.6 7.5-10.2 2.4-6.7 2.4-15.7 0-9-2.4-15.4-2.4-6.6-7.4-10.2-5-3.5-12.9-3.5-11.7 0-17.2 7.7-5.4 7.7-5.4 21.4zm127.1-37.3h11.4v74.9h-9.3l-1.6-10.5h-0.6q-2.4 3.9-6.1 6.5-3.6 2.7-8.3 4.1-4.6 1.3-9.8 1.3-8.9 0-14.9-2.9-6-2.9-9.1-8.9-3-6-3-15.4v-49.1h11.5v48.2q0 9.4 4.3 14.1 4.2 4.5 12.9 4.5 8.3 0 13.2-3.1 5-3.2 7.2-9.2 2.2-6.2 2.2-15.1zm35.4-31.4h11.3v55.2q0 2.7-0.2 6.7-0.2 3.9-0.4 6.9h0.5q1.5-1.8 4.2-5.2 2.8-3.5 4.7-5.7l24.9-26.5h13.3l-30.1 32 32.3 42.9h-13.7l-26.4-35.4-9.1 8.3v27.1h-11.3z"/>
	</g>
</svg>